{
  "accessors": [
    {
      "bufferView": 2,
      "componentType": 5126,
      "count": 900,
      "max": [
        6915.71728515625,
        6905.3515625,
        22.125518798828125
      ],
      "min": [
        -6914.03857421875,
        -6904.77783203125,
        22.125518798828125
      ],
      "type": "VEC3"
    },
    {
      "bufferView": 2,
      "byteOffset": 10800,
      "componentType": 5126,
      "count": 900,
      "max": [
        0.0,
        0.0,
        -1.0
      ],
      "min": [
        0.0,
        0.0,
        -1.0
      ],
      "type": "VEC3"
    },
    {
      "bufferView": 1,
      "componentType": 5126,
      "count": 900,
      "max": [
        1.0,
        1.0
      ],
      "min": [
        4.470348358154297e-08,
        0.0
      ],
      "type": "VEC2"
    },
    {
      "bufferView": 0,
      "componentType": 5125,
      "count": 1350,
      "type": "SCALAR"
    },
    {
      "bufferView": 2,
      "byteOffset": 21600,
      "componentType": 5126,
      "count": 3792,
      "max": [
        6941.33837890625,
        6925.68359375,
        101.5999984741211
      ],
      "min": [
        -6939.65869140625,
        -6925.1103515625,
        0.0
      ],
      "type": "VEC3"
    },
    {
      "bufferView": 2,
      "byteOffset": 67104,
      "componentType": 5126,
      "count": 3792,
      "max": [
        1.0,
        1.0,
        1.0
      ],
      "min": [
        -1.0,
        -1.0,
        -0.7568492889404297
      ],
      "type": "VEC3"
    },
    {
      "bufferView": 1,
      "byteOffset": 7200,
      "componentType": 5126,
      "count": 3792,
      "max": [
        1.0,
        1.0
      ],
      "min": [
        0.0,
        0.0
      ],
      "type": "VEC2"
    },
    {
      "bufferView": 0,
      "byteOffset": 5400,
      "componentType": 5125,
      "count": 7110,
      "type": "SCALAR"
    },
    {
      "bufferView": 2,
      "byteOffset": 112608,
      "componentType": 5126,
      "count": 51456,
      "max": [
        188.23648071289063,
        223.99761962890625,
        0.12999890744686127
      ],
      "min": [
        -154.3334503173828,
        -186.23257446289063,
        -0.18450111150741577
      ],
      "type": "VEC3"
    },
    {
      "bufferView": 2,
      "byteOffset": 730080,
      "componentType": 5126,
      "count": 51456,
      "max": [
        1.0,
        1.0,
        1.0
      ],
      "min": [
        -1.0,
        -1.0,
        -1.0
      ],
      "type": "VEC3"
    },
    {
      "bufferView": 1,
      "byteOffset": 37536,
      "componentType": 5126,
      "count": 51456,
      "max": [
        0.9879449009895325,
        1.000002145767212
      ],
      "min": [
        0.010121464729309082,
        -2.205371856689453e-06
      ],
      "type": "VEC2"
    },
    {
      "bufferView": 1,
      "byteOffset": 449184,
      "componentType": 5126,
      "count": 51456,
      "max": [
        0.9879449009895325,
        1.000002145767212
      ],
      "min": [
        0.010121464729309082,
        -2.205371856689453e-06
      ],
      "type": "VEC2"
    },
    {
      "bufferView": 0,
      "byteOffset": 33840,
      "componentType": 5125,
      "count": 68445,
      "type": "SCALAR"
    },
    {
      "bufferView": 2,
      "byteOffset": 1347552,
      "componentType": 5126,
      "count": 24,
      "max": [
        50.79999923706055,
        6858.0,
        4876.7998046875
      ],
      "min": [
        -50.79999923706055,
        -6858.0,
        0.0
      ],
      "type": "VEC3"
    },
    {
      "bufferView": 2,
      "byteOffset": 1347840,
      "componentType": 5126,
      "count": 24,
      "max": [
        1.0,
        1.0,
        1.0
      ],
      "min": [
        -1.0,
        -1.0,
        -1.0
      ],
      "type": "VEC3"
    },
    {
      "bufferView": 1,
      "byteOffset": 860832,
      "componentType": 5126,
      "count": 24,
      "max": [
        1.0,
        1.0
      ],
      "min": [
        0.0,
        0.0
      ],
      "type": "VEC2"
    },
    {
      "bufferView": 0,
      "byteOffset": 307620,
      "componentType": 5125,
      "count": 36,
      "type": "SCALAR"
    },
    {
      "bufferView": 2,
      "byteOffset": 1348128,
      "componentType": 5126,
      "count": 24,
      "max": [
        50.79999923706055,
        6858.0,
        4876.7998046875
      ],
      "min": [
        -50.79999923706055,
        -6858.0,
        0.0
      ],
      "type": "VEC3"
    },
    {
      "bufferView": 2,
      "byteOffset": 1348416,
      "componentType": 5126,
      "count": 24,
      "max": [
        1.0,
        1.0,
        1.0
      ],
      "min": [
        -1.0,
        -1.0,
        -1.0
      ],
      "type": "VEC3"
    },
    {
      "bufferView": 1,
      "byteOffset": 861024,
      "componentType": 5126,
      "count": 24,
      "max": [
        1.0,
        1.0
      ],
      "min": [
        0.0,
        0.0
      ],
      "type": "VEC2"
    },
    {
      "bufferView": 0,
      "byteOffset": 307764,
      "componentType": 5125,
      "count": 36,
      "type": "SCALAR"
    },
    {
      "bufferView": 2,
      "byteOffset": 1348704,
      "componentType": 5126,
      "count": 24,
      "max": [
        6959.60009765625,
        50.79999923706055,
        4876.7998046875
      ],
      "min": [
        -6959.60009765625,
        -50.79999923706055,
        0.0
      ],
      "type": "VEC3"
    },
    {
      "bufferView": 2,
      "byteOffset": 1348992,
      "componentType": 5126,
      "count": 24,
      "max": [
        1.0,
        1.0,
        1.0
      ],
      "min": [
        -1.0,
        -1.0,
        -1.0
      ],
      "type": "VEC3"
    },
    {
      "bufferView": 1,
      "byteOffset": 861216,
      "componentType": 5126,
      "count": 24,
      "max": [
        1.0,
        1.0
      ],
      "min": [
        0.0,
        0.0
      ],
      "type": "VEC2"
    },
    {
      "bufferView": 0,
      "byteOffset": 307908,
      "componentType": 5125,
      "count": 36,
      "type": "SCALAR"
    },
    {
      "bufferView": 2,
      "byteOffset": 1349280,
      "componentType": 5126,
      "count": 24,
      "max": [
        6959.60009765625,
        50.79999923706055,
        4876.7998046875
      ],
      "min": [
        -6959.60009765625,
        -50.79999923706055,
        0.0
      ],
      "type": "VEC3"
    },
    {
      "bufferView": 2,
      "byteOffset": 1349568,
      "componentType": 5126,
      "count": 24,
      "max": [
        1.0,
        1.0,
        1.0
      ],
      "min": [
        -1.0,
        -1.0,
        -1.0
      ],
      "type": "VEC3"
    },
    {
      "bufferView": 1,
      "byteOffset": 861408,
      "componentType": 5126,
      "count": 24,
      "max": [
        1.0,
        1.0
      ],
      "min": [
        0.0,
        0.0
      ],
      "type": "VEC2"
    },
    {
      "bufferView": 0,
      "byteOffset": 308052,
      "componentType": 5125,
      "count": 36,
      "type": "SCALAR"
    },
    {
      "bufferView": 2,
      "byteOffset": 1349856,
      "componentType": 5126,
      "count": 48,
      "max": [
        6858.36279296875,
        6855.89306640625,
        50.80328369140625
      ],
      "min": [
        -6857.8037109375,
        -6854.32177734375,
        -50.80328369140625
      ],
      "type": "VEC3"
    },
    {
      "bufferView": 2,
      "byteOffset": 1350432,
      "componentType": 5126,
      "count": 48,
      "max": [
        1.0,
        1.0,
        1.0
      ],
      "min": [
        -1.0,
        -1.0,
        -1.0
      ],
      "type": "VEC3"
    },
    {
      "bufferView": 0,
      "byteOffset": 308196,
      "componentType": 5125,
      "count": 96,
      "type": "SCALAR"
    }
  ],
  "asset": {
    "extras": {
      "author": "Nagwanshi.Sweeti (https://sketchfab.com/Nagwanshi.Sweeti)",
      "license": "CC-BY-4.0 (http://creativecommons.org/licenses/by/4.0/)",
      "source": "https://sketchfab.com/3d-models/showroom-f457e822cb804cdd83681a0df93ff74d",
      "title": "showroom"
    },
    "generator": "Sketchfab-12.55.0",
    "version": "2.0"
  },
  "bufferViews": [
    {
      "buffer": 0,
      "byteLength": 308580,
      "name": "floatBufferViews",
      "target": 34963
    },
    {
      "buffer": 0,
      "byteLength": 861600,
      "byteOffset": 308580,
      "byteStride": 8,
      "name": "floatBufferViews",
      "target": 34962
    },
    {
      "buffer": 0,
      "byteLength": 1351008,
      "byteOffset": 1170180,
      "byteStride": 12,
      "name": "floatBufferViews",
      "target": 34962
    }
  ],
  "buffers": [
    {
      "byteLength": 2521188,
      "uri": "scene.bin"
    }
  ],
  "images": [
    {
      "uri": "textures/lambert2_baseColor.jpeg"
    }
  ],
  "materials": [
    {
      "doubleSided": true,
      "emissiveFactor": [
        1.0,
        1.0,
        1.0
      ],
      "name": "light",
      "pbrMetallicRoughness": {
        "metallicFactor": 0.0
      }
    },
    {
      "doubleSided": true,
      "name": "PLASTICPVCOpaque_Black",
      "pbrMetallicRoughness": {
        "baseColorFactor": [
          0.0,
          0.0,
          0.0,
          1.0
        ],
        "metallicFactor": 0.0,
        "roughnessFactor": 0.6773288658649668
      }
    },
    {
      "doubleSided": true,
      "name": "lambert2",
      "pbrMetallicRoughness": {
        "baseColorTexture": {
          "index": 0
        },
        "metallicFactor": 0.0,
        "roughnessFactor": 0.6
      }
    },
    {
      "doubleSided": true,
      "name": "grey_wall",
      "pbrMetallicRoughness": {
        "baseColorFactor": [
          0.137255,
          0.137255,
          0.137255,
          1.0
        ],
        "metallicFactor": 0.0
      }
    }
  ],
  "meshes": [
    {
      "name": "Box2131637147_light_0",
      "primitives": [
        {
          "attributes": {
            "NORMAL": 1,
            "POSITION": 0,
            "TEXCOORD_0": 2
          },
          "indices": 3,
          "material": 0,
          "mode": 4
        }
      ]
    },
    {
      "name": "Box2131637147_PLASTIC:PVC:Opaque Black_0",
      "primitives": [
        {
          "attributes": {
            "NORMAL": 5,
            "POSITION": 4,
            "TEXCOORD_0": 6
          },
          "indices": 7,
          "material": 1,
          "mode": 4
        }
      ]
    },
    {
      "name": "Plane825_lambert2_0",
      "primitives": [
        {
          "attributes": {
            "NORMAL": 9,
            "POSITION": 8,
            "TEXCOORD_0": 10,
            "TEXCOORD_1": 11
          },
          "indices": 12,
          "material": 2,
          "mode": 4
        }
      ]
    },
    {
      "name": "Box2131637150_grey_wall_0",
      "primitives": [
        {
          "attributes": {
            "NORMAL": 14,
            "POSITION": 13,
            "TEXCOORD_0": 15
          },
          "indices": 16,
          "material": 3,
          "mode": 4
        }
      ]
    },
    {
      "name": "Box2131637151_grey_wall_0",
      "primitives": [
        {
          "attributes": {
            "NORMAL": 18,
            "POSITION": 17,
            "TEXCOORD_0": 19
          },
          "indices": 20,
          "material": 3,
          "mode": 4
        }
      ]
    },
    {
      "name": "Box2131637152_grey_wall_0",
      "primitives": [
        {
          "attributes": {
            "NORMAL": 22,
            "POSITION": 21,
            "TEXCOORD_0": 23
          },
          "indices": 24,
          "material": 3,
          "mode": 4
        }
      ]
    },
    {
      "name": "Box2131637153_grey_wall_0",
      "primitives": [
        {
          "attributes": {
            "NORMAL": 26,
            "POSITION": 25,
            "TEXCOORD_0": 27
          },
          "indices": 28,
          "material": 3,
          "mode": 4
        }
      ]
    },
    {
      "name": "Line001_grey_wall_0",
      "primitives": [
        {
          "attributes": {
            "NORMAL": 30,
            "POSITION": 29
          },
          "indices": 31,
          "material": 3,
          "mode": 4
        }
      ]
    }
  ],
  "nodes": [
    {
      "children": [
        1
      ],
      "matrix": [
        1.0,
        0.0,
        0.0,
        0.0,
        0.0,
        2.220446049250313e-16,
        -1.0,
        0.0,
        0.0,
        1.0,
        2.220446049250313e-16,
        0.0,
        0.0,
        0.0,
        0.0,
        1.0
      ],
      "name": "Sketchfab_model"
    },
    {
      "children": [
        2
      ],
      "matrix": [
        0.009999999776482582,
        0.0,
        0.0,
        0.0,
        0.0,
        0.0,
        0.009999999776482582,
        0.0,
        0.0,
        -0.009999999776482582,
        0.0,
        0.0,
        0.0,
        0.0,
        0.0,
        1.0
      ],
      "name": "showroom.fbx"
    },
    {
      "children": [
        3,
        6,
        8,
        10,
        12,
        14,
        16
      ],
      "name": "RootNode"
    },
    {
      "children": [
        4,
        5
      ],
      "matrix": [
        0.09880450367927551,
        0.0,
        0.0,
        0.0,
        0.0,
        2.1977131738711103e-17,
        -0.09897620230913162,
        0.0,
        0.0,
        0.10000000149011612,
        2.2204460823375376e-17,
        0.0,
        -139.4335174560547,
        487.67999267578125,
        -6555.47265625,
        1.0
      ],
      "name": "Box2131637147"
    },
    {
      "mesh": 0,
      "name": "Box2131637147_light_0"
    },
    {
      "mesh": 1,
      "name": "Box2131637147_PLASTIC:PVC:Opaque Black_0"
    },
    {
      "children": [
        7
      ],
      "matrix": [
        0.0,
        0.0,
        4.003015518188477,
        0.0,
        3.3637123107910156,
        0.0,
        0.0,
        0.0,
        0.0,
        2.5399999618530273,
        0.0,
        0.0,
        -193.76683044433594,
        -0.07498297840356827,
        -6623.4306640625,
        1.0
      ],
      "name": "Plane825"
    },
    {
      "mesh": 2,
      "name": "Plane825_lambert2_0"
    },
    {
      "children": [
        9
      ],
      "matrix": [
        0.10000000149011612,
        0.0,
        0.0,
        0.0,
        0.0,
        2.2204460823375376e-17,
        -0.10000000149011612,
        0.0,
        0.0,
        0.10000000149011612,
        2.2204460823375376e-17,
        0.0,
        551.4530029296875,
        -5.048709793414476e-29,
        -6555.47265625,
        1.0
      ],
      "name": "Box2131637150"
    },
    {
      "mesh": 3,
      "name": "Box2131637150_grey_wall_0"
    },
    {
      "children": [
        11
      ],
      "matrix": [
        0.10000000149011612,
        0.0,
        0.0,
        0.0,
        0.0,
        2.2204460823375376e-17,
        -0.10000000149011612,
        0.0,
        0.0,
        0.10000000149011612,
        2.2204460823375376e-17,
        0.0,
        -830.2908325195313,
        -5.048709793414476e-29,
        -6555.47265625,
        1.0
      ],
      "name": "Box2131637151"
    },
    {
      "mesh": 4,
      "name": "Box2131637151_grey_wall_0"
    },
    {
      "children": [
        13
      ],
      "matrix": [
        0.10000000149011612,
        0.0,
        0.0,
        0.0,
        0.0,
        2.2204460823375376e-17,
        -0.10000000149011612,
        0.0,
        0.0,
        0.10000000149011612,
        2.2204460823375376e-17,
        0.0,
        -139.4335174560547,
        0.0,
        -7246.12744140625,
        1.0
      ],
      "name": "Box2131637152"
    },
    {
      "mesh": 5,
      "name": "Box2131637152_grey_wall_0"
    },
    {
      "children": [
        15
      ],
      "matrix": [
        0.10000000149011612,
        0.0,
        0.0,
        0.0,
        0.0,
        2.2204460823375376e-17,
        -0.10000000149011612,
        0.0,
        0.0,
        0.10000000149011612,
        2.2204460823375376e-17,
        0.0,
        -139.4335174560547,
        0.0,
        -5864.96875,
        1.0
      ],
      "name": "Box2131637153"
    },
    {
      "mesh": 6,
      "name": "Box2131637153_grey_wall_0"
    },
    {
      "children": [
        17
      ],
      "matrix": [
        0.10000000149011612,
        0.0,
        0.0,
        0.0,
        0.0,
        2.2204460823375376e-17,
        -0.10000000149011612,
        0.0,
        0.0,
        0.10000000149011612,
        2.2204460823375376e-17,
        0.0,
        -139.4188995361328,
        5.016282558441162,
        -6555.47265625,
        1.0
      ],
      "name": "Line001"
    },
    {
      "mesh": 7,
      "name": "Line001_grey_wall_0"
    }
  ],
  "samplers": [
    {
      "magFilter": 9729,
      "minFilter": 9987,
      "wrapS": 10497,
      "wrapT": 10497
    }
  ],
  "scene": 0,
  "scenes": [
    {
      "name": "Sketchfab_Scene",
      "nodes": [
        0
      ]
    }
  ],
  "textures": [
    {
      "sampler": 0,
      "source": 0
    }
  ]
}
